<?xml version="1.0" standalone="no"?>
<!DOCTYPE svg PUBLIC "-//W3C//DTD SVG 20010904//EN"
 "http://www.w3.org/TR/2001/REC-SVG-20010904/DTD/svg10.dtd">
<svg version="1.0" xmlns="http://www.w3.org/2000/svg"
 width="512.000000pt" height="512.000000pt" viewBox="0 0 512.000000 512.000000"
 preserveAspectRatio="xMidYMid meet">
<metadata>
Created by potrace 1.11, written by Peter Selinger 2001-2013
</metadata>
<g transform="translate(0.000000,512.000000) scale(0.100000,-0.100000)"
fill="#000000" stroke="none">
<path d="M7 4353 c-4 -3 -7 -811 -7 -1795 l0 -1788 2560 0 2560 0 -2 1793 -3
1792 -2551 3 c-1403 1 -2554 -1 -2557 -5z m963 -387 l0 -205 91 -3 c50 -2 93
-1 95 2 3 2 4 94 4 205 l-2 200 1886 3 1886 2 0 -1607 0 -1608 -1888 0 -1887
0 -3 208 -2 207 -90 0 -90 0 -2 -207 -3 -208 -387 -3 -388 -2 0 1610 0 1610
390 0 390 0 0 -204z"/>
<path d="M970 3090 l0 -430 193 0 c287 0 388 29 486 135 77 85 96 142 96 300
0 123 -2 134 -29 193 -38 81 -123 162 -203 192 -91 34 -143 40 -349 40 l-194
0 0 -430z m460 236 c49 -26 78 -54 103 -101 32 -59 32 -212 0 -272 -47 -87
-129 -123 -280 -123 l-93 0 0 261 0 261 118 -4 c88 -3 126 -8 152 -22z"/>
<path d="M2074 3310 c-68 -27 -133 -85 -169 -151 -25 -46 -30 -68 -33 -145 -7
-161 48 -263 175 -326 63 -31 74 -33 168 -33 88 1 107 4 155 28 30 14 67 37
82 49 l27 23 -50 54 c-47 51 -53 54 -72 41 -81 -51 -175 -61 -235 -25 -33 19
-72 71 -72 94 0 8 68 11 241 11 l241 0 -4 98 c-5 111 -22 154 -85 213 -66 64
-115 82 -223 86 -77 2 -105 -1 -146 -17z m201 -146 c22 -10 41 -31 54 -57 l21
-42 -75 -3 c-41 -2 -109 -2 -150 0 l-75 3 17 35 c35 68 135 99 208 64z"/>
<path d="M2580 3313 c0 -4 57 -152 128 -330 l127 -323 96 0 95 0 131 330 130
330 -96 0 -96 0 -80 -204 c-44 -112 -83 -201 -86 -198 -4 4 -42 96 -85 205
l-77 197 -94 0 c-51 0 -93 -3 -93 -7z"/>
<path d="M3380 2000 l0 -461 93 3 92 3 2 98 c1 93 3 101 29 128 l27 28 86
-127 86 -127 108 -3 c59 -1 107 1 107 5 0 4 -58 95 -129 202 l-130 194 125
131 124 131 -113 3 -112 3 -102 -105 c-56 -58 -103 -106 -105 -106 -2 0 -3 17
-3 37 -1 21 -2 125 -3 231 l-2 192 -90 0 -90 0 0 -460z"/>
<path d="M965 2399 c-3 -8 -4 -203 -3 -434 l3 -420 200 1 c221 2 302 15 387
61 142 78 219 260 190 451 -26 164 -113 269 -272 323 -57 19 -91 23 -282 27
-178 4 -219 2 -223 -9z m404 -170 c114 -24 181 -114 181 -244 0 -95 -14 -139
-61 -190 -54 -58 -106 -75 -231 -75 l-98 0 0 260 0 260 80 0 c43 0 102 -5 129
-11z"/>
<path d="M2093 2206 c-89 -29 -168 -99 -204 -181 -30 -67 -37 -183 -15 -257
28 -98 116 -185 220 -218 55 -18 182 -15 236 4 43 16 140 76 140 86 -1 3 -23
29 -49 59 l-49 54 -28 -20 c-62 -43 -147 -55 -207 -29 -34 14 -80 60 -90 89
-6 16 10 17 240 17 l246 0 -6 93 c-3 50 -13 109 -22 131 -24 57 -98 131 -158
157 -64 28 -192 36 -254 15z m186 -163 c28 -21 63 -81 55 -95 -3 -4 -68 -8
-145 -8 -129 0 -139 1 -139 19 0 28 39 71 84 93 49 22 107 19 145 -9z"/>
<path d="M2853 2201 c-91 -34 -167 -103 -205 -186 -18 -40 -22 -68 -23 -140 0
-79 4 -97 28 -147 81 -165 292 -239 459 -161 59 28 138 86 138 102 0 4 -23 33
-51 65 l-52 57 -31 -30 c-94 -91 -237 -75 -294 34 -20 39 -20 131 1 172 52 99
203 120 294 40 l35 -31 19 25 c10 13 32 43 49 65 l30 42 -35 27 c-104 78 -255
106 -362 66z"/>
<path d="M4247 2206 c-103 -38 -157 -105 -157 -193 0 -89 54 -144 190 -194
134 -49 158 -66 144 -104 -21 -53 -172 -43 -256 16 -14 11 -30 19 -36 19 -5 0
-27 -25 -48 -56 -32 -46 -36 -57 -24 -65 97 -64 181 -91 285 -91 153 0 255 85
255 213 0 104 -41 144 -205 199 -103 35 -135 54 -135 79 0 53 107 63 203 19
l57 -27 14 22 c7 12 23 39 34 59 l21 38 -22 14 c-88 58 -238 83 -320 52z"/>
</g>
</svg>
